<svg width="100%" height="100%" viewBox="0 0 242 242" version="1.1" xmlns="http://www.w3.org/2000/svg" xmlns:xlink="http://www.w3.org/1999/xlink">
        <defs></defs>
        <g stroke="none" stroke-width="1" fill="none" fill-rule="evenodd">
            <g>
                <circle fill="#f8f8f8" cx="121" cy="121" r="121"></circle>
                <path d="M97.546678,144.176199 C97.7625034,156.095966 89.5561398,166.879969 77.5139688,169.443343 C63.8609432,172.349706 50.4473446,163.587605 47.5541213,149.872133 C44.660898,136.157101 53.3838221,122.682583 67.0368478,119.77622 C69.2064577,119.314368 71.3700216,119.147186 73.4862828,119.247721 C71.48627,115.150233 69.9527967,110.740732 68.9680372,106.072906 C62.542827,75.6140256 81.9137043,45.6905976 112.234877,39.2362065 C142.555176,32.7818154 172.343754,52.2406678 178.769402,82.6991089 C185.194612,113.157111 165.823298,143.081417 135.502999,149.535808 C122.087426,152.391547 108.776199,150.174394 97.546678,144.176199 Z" fill="#fff"></path>
                <g transform="translate(44.000000, 98.000000)">
                    <path d="M16.0542782,6.7704982 C16.9829647,11.1315788 14.1824562,15.4160041 9.79823305,16.3402239 C5.41400989,17.2640082 1.10684887,14.4778469 0.177724576,10.1172018 C-0.750961864,5.75612121 2.04998446,1.47169594 6.43376977,0.547476117 C10.8179929,-0.376743708 15.125154,2.40941757 16.0542782,6.7704982" fill="#509bf5"></path>
                    <path d="M84.587572,105.080571 C65.853589,109.029194 47.4488715,97.1236569 43.4788573,78.4889985 C39.5088432,59.85434 51.4775579,41.546338 70.2111031,37.5972799 C88.9450862,33.6482219 107.350242,45.5537586 111.319818,64.1888526 C115.289832,82.823511 103.321117,101.131078 84.587572,105.080571 Z" fill="#509bf5"></path>
                    <path d="M154.236691,26.5149173 C156.661521,37.8964972 149.351564,49.0781633 137.909586,51.4901941 C126.467609,53.9017894 115.226606,46.6308536 112.802213,35.2492738 C110.377383,23.8676939 117.68734,12.6855922 129.129318,10.2739969 C140.571295,7.8619661 151.812298,15.1333374 154.236691,26.5149173" fill="#000"></path>
                </g>
                <path d="M140.885603,102.831431 L141.876777,76.5730126 L110.839898,81.612584 L109.607161,114.259084 C109.620666,114.511051 109.622812,114.765835 109.613113,115.022912 C109.440531,119.597086 105.582713,123.166176 100.996653,122.994025 C96.4105918,122.821439 92.8330024,118.97369 93.0060201,114.399081 C93.1781663,109.824473 97.0364193,106.255817 101.622044,106.427968 C103.763856,106.50857 105.685707,107.390871 107.108313,108.774408 L108.162291,80.8518045 L108.162576,80.8518153 L108.5377,70.9205168 L145,65 L144.623083,74.9787561 L144.642808,74.9794987 L143.355416,109.084962 C143.162848,113.641419 139.314086,117.189975 134.74022,117.018298 C130.154595,116.845713 126.577005,112.997963 126.750023,108.423355 C126.922169,103.84918 130.779986,100.28009 135.366047,100.452241 C137.524711,100.533477 139.459841,101.429077 140.885603,102.831431 Z" fill="#509bf5"></path>
                <path d="M131.093422,179.458265 L115.375524,150 L113,151.236816 L125.915331,175.442184 C124.082148,174.996331 122.082783,175.186665 120.281159,176.12444 C116.377233,178.157174 114.880205,182.930469 116.938394,186.786112 C118.996135,190.642198 123.829205,192.120268 127.73358,190.087977 C131.626712,188.060863 133.126237,183.308324 131.093337,179.458309 Z" fill="#fff"></path>
                <path d="M186.493018,130.377701 L173.520834,137.86263 C172.844859,138.252783 172,137.765423 172,136.985559 L172,122.014818 C172,121.234954 172.844859,120.747152 173.520834,121.137305 L186.493018,128.622676 C187.168994,129.012387 187.168994,129.987548 186.493018,130.377701" fill="#fff"></path>
            </g>
        </g>
    </svg>