<svg width="100%" height="100%" viewBox="0 0 242 242" version="1.1" xmlns="http://www.w3.org/2000/svg" xmlns:xlink="http://www.w3.org/1999/xlink">
    <g stroke="none" stroke-width="1" fill="none" fill-rule="evenodd">
        <g>
            <circle fill="#f8f8f8" cx="121" cy="121" r="121"></circle>
            <g transform="translate(51.000000, 50.000000)">
                <path d="M13.2758621,6.05678233e-05 C5.80215517,6.05678233e-05 0,5.82365678 0,13.3249817 L0,168.984288 C3.05646552,171.173209 6.39594828,173.74613 9.65517241,175.646748 C32.1058621,181.005789 48.1117241,184.000868 70.1780172,184.000868 C92.2425,184.000868 106.06931,183.384288 130.948276,175.848439 C134.208707,173.947215 136.942328,172.385777 140,170.195644 L140,13.9306599 C140,6.42933502 134.197241,6.05678233e-05 126.724138,6.05678233e-05 L13.2758621,6.05678233e-05 Z" fill="#509bf5"></path>
                <path d="M130.948276,36.3407546 L10.2586207,36.3407546 L10.2586207,175.848439 C28.0543103,186.225524 48.5401724,192.000061 70.6034483,192.000061 C92.667931,192.000061 113.151983,186.226736 130.948276,175.848439 L130.948276,36.3407546 Z" fill="#fff"></path>
                <path d="M81.4655172,21.1987987 L59.7413793,21.1987987 C58.7414655,21.1987987 57.9310345,20.3853729 57.9310345,19.381764 C57.9310345,18.3781552 58.7414655,17.5647293 59.7413793,17.5647293 L81.4655172,17.5647293 C82.465431,17.5647293 83.2758621,18.3781552 83.2758621,19.381764 C83.2758621,20.3853729 82.465431,21.1987987 81.4655172,21.1987987" fill="#fff"></path>
            </g>
            <g transform="translate(74.000000, 125.000000)">
                <path d="M84.9615385,77 L9.03846154,77 C3.71360256,77 0,72.6910078 0,67.375 L0,9.625 C0,4.30899219 3.71360256,0 9.03846154,0 L84.9615385,0 C90.2863974,0 94,4.30899219 94,9.625 L94,67.375 C94,72.6910078 90.2863974,77 84.9615385,77" fill="#000"></path>
                <polygon fill="#fff" points="51.2179487 46.921875 44.5897436 46.921875 42.1794872 15.640625 53.6282051 15.640625"></polygon>
                <path d="M53.025641,56.8476562 C53.025641,54.0239219 50.7322821,51.734375 47.9038462,51.734375 C45.0754103,51.734375 42.7820513,54.0239219 42.7820513,56.8476562 C42.7820513,59.6713906 45.0754103,61.9609375 47.9038462,61.9609375 C50.7322821,61.9609375 53.025641,59.6713906 53.025641,56.8476562" fill="#fff"></path>
            </g>
            <g transform="translate(165.000000, 64.000000)">
                <path d="M44,22 C44,34.1501111 34.1501111,44 22,44 C9.84988889,44 0,34.1501111 0,22 C0,9.84988889 9.84988889,0 22,0 C34.1501111,0 44,9.84988889 44,22" fill="#000"></path>
                <path d="M14.0555556,14.0555556 L29.5075,29.5075" stroke="#fff" stroke-width="4.84" stroke-linecap="round"></path>
                <path d="M14.0555556,29.5074389 L29.5075,14.0554944" stroke="#fff" stroke-width="4.84" stroke-linecap="round"></path>
            </g>
        </g>
    </g>
</svg>