<svg width="100%" height="100%" viewBox="0 0 242 242" version="1.1" xmlns="http://www.w3.org/2000/svg" xmlns:xlink="http://www.w3.org/1999/xlink">
        <defs></defs>
        <g stroke="none" stroke-width="1" fill="none" fill-rule="evenodd">
            <g>
                <circle fill="#f8f8f8" cx="121" cy="121" r="121"></circle>
                <g transform="translate(51.000000, 50.000000)">
                    <path d="M126.724138,6.05678233e-05 L13.2758621,6.05678233e-05 C5.80215517,6.05678233e-05 0,5.82365678 0,13.3249817 L0,168.984288 C3.05646552,171.173209 6.39594828,173.74613 9.65517241,175.646748 C32.1058621,181.005789 48.1117241,184.000868 70.1780172,184.000868 C92.2425,184.000868 106.06931,183.384288 130.948276,175.848439 C134.208707,173.947215 136.942328,172.385777 140,170.195644 L140,13.9306599 C140,6.42933502 134.197241,6.05678233e-05 126.724138,6.05678233e-05" fill="#509bf5"></path>
                    <path d="M130.948276,36.3407546 L10.2586207,36.3407546 L10.2586207,175.848439 C28.0543103,186.225524 48.5401724,192.000061 70.6034483,192.000061 C92.667931,192.000061 113.151983,186.226736 130.948276,175.848439 L130.948276,36.3407546 Z" fill="#fff"></path>
                    <path d="M81.4655172,21.1987987 L59.7413793,21.1987987 C58.7414655,21.1987987 57.9310345,20.3853729 57.9310345,19.381764 C57.9310345,18.3781552 58.7414655,17.5647293 59.7413793,17.5647293 L81.4655172,17.5647293 C82.465431,17.5647293 83.2758621,18.3781552 83.2758621,19.381764 C83.2758621,20.3853729 82.465431,21.1987987 81.4655172,21.1987987" fill="#fff"></path>
                </g>
                <g transform="translate(82.000000, 125.000000)">
                    <path d="M77.0000602,38.5 C77.0000602,59.7628281 59.7628883,77 38.5000602,77 C17.237232,77 6.01562499e-05,59.7628281 6.01562499e-05,38.5 C6.01562499e-05,17.2371719 17.237232,0 38.5000602,0 C59.7628883,0 77.0000602,17.2371719 77.0000602,38.5" fill="#000"></path>
                    <path d="M23.1466812,52.5867891 C22.2268922,53.1179688 21.0773062,52.4544453 21.0773062,51.3920859 L21.0773062,26.8242734 C21.0773062,25.7619141 22.2268922,25.0983906 23.1466812,25.6289688 L44.4233453,37.9134766 C45.3431344,38.4446563 45.3431344,39.7717031 44.4233453,40.3028828 L23.1466812,52.5867891 Z" fill="#fff"></path>
                    <path d="M53.5390625,54.2664719 L53.5390625,54.2664719 C52.2102109,54.2664719 51.1328125,53.1890734 51.1328125,51.8602219 L51.1328125,25.9930344 C51.1328125,24.6641828 52.2102109,23.5867844 53.5390625,23.5867844 L53.5390625,23.5867844 C54.8679141,23.5867844 55.9453125,24.6641828 55.9453125,25.9930344 L55.9453125,51.8602219 C55.9453125,53.1890734 54.8679141,54.2664719 53.5390625,54.2664719" fill="#fff"></path>
                </g>
            </g>
        </g>
    </svg>